<svg width="60" height="60" viewBox="0 0 60 60" fill="none" xmlns="http://www.w3.org/2000/svg">
<path d="M19.2443 4.45516C25.1845 -1.48506 34.8155 -1.48505 40.7557 4.45516C46.6959 10.3954 46.6959 20.0264 40.7557 25.9666C34.8155 31.9068 25.1845 31.9068 19.2443 25.9666C13.3041 20.0264 13.3041 10.3954 19.2443 4.45516Z" fill="white" style="fill:white;fill-opacity:1;"/>
<path d="M4.45517 19.2443C10.3954 13.3041 20.0264 13.3041 25.9666 19.2443C31.9068 25.1845 31.9068 34.8155 25.9666 40.7557C20.0264 46.6959 10.3954 46.6959 4.45516 40.7557C-1.48506 34.8155 -1.48505 25.1845 4.45517 19.2443Z" fill="white" style="fill:white;fill-opacity:1;"/>
<path d="M34.0334 19.2443C39.9736 13.3041 49.6046 13.3041 55.5448 19.2443C61.4851 25.1845 61.4851 34.8155 55.5448 40.7557C49.6046 46.6959 39.9736 46.6959 34.0334 40.7557C28.0932 34.8155 28.0932 25.1845 34.0334 19.2443Z" fill="white" style="fill:white;fill-opacity:1;"/>
<path d="M19.2443 34.0334C25.1845 28.0932 34.8155 28.0932 40.7557 34.0334C46.6959 39.9736 46.6959 49.6046 40.7557 55.5448C34.8155 61.4851 25.1845 61.4851 19.2443 55.5448C13.3041 49.6046 13.3041 39.9736 19.2443 34.0334Z" fill="white" style="fill:white;fill-opacity:1;"/>
<path d="M25 23C25 20.2386 27.2386 18 30 18C32.7614 18 35 20.2386 35 23V37C35 39.7614 32.7614 42 30 42C27.2386 42 25 39.7614 25 37V23Z" fill="black" style="fill:black;fill-opacity:1;"/>
</svg>
