<svg width="84" height="84" viewBox="0 0 84 84" fill="none" xmlns="http://www.w3.org/2000/svg">
<g clip-path="url(#clip0_3025_69)">
<path d="M60 0H24C10.7452 0 0 10.7452 0 24V60C0 73.2548 10.7452 84 24 84H60C73.2548 84 84 73.2548 84 60V24C84 10.7452 73.2548 0 60 0Z" fill="white" style="fill:white;fill-opacity:1;"/>
<path d="M31.2443 16.4552C37.1845 10.5149 46.8155 10.5149 52.7557 16.4552C58.6959 22.3954 58.6959 32.0264 52.7557 37.9666C46.8155 43.9068 37.1845 43.9068 31.2443 37.9666C25.3041 32.0264 25.3041 22.3954 31.2443 16.4552Z" fill="black" style="fill:black;fill-opacity:1;"/>
<path d="M16.4552 31.2443C22.3954 25.3041 32.0264 25.3041 37.9666 31.2443C43.9068 37.1845 43.9068 46.8155 37.9666 52.7557C32.0264 58.6959 22.3954 58.6959 16.4552 52.7557C10.5149 46.8155 10.5149 37.1845 16.4552 31.2443Z" fill="black" style="fill:black;fill-opacity:1;"/>
<path d="M46.0334 31.2443C51.9736 25.3041 61.6046 25.3041 67.5448 31.2443C73.4851 37.1845 73.4851 46.8155 67.5448 52.7557C61.6046 58.6959 51.9736 58.6959 46.0334 52.7557C40.0932 46.8155 40.0932 37.1845 46.0334 31.2443Z" fill="black" style="fill:black;fill-opacity:1;"/>
<path d="M31.2443 46.0334C37.1845 40.0932 46.8155 40.0932 52.7557 46.0334C58.6959 51.9736 58.6959 61.6046 52.7557 67.5448C46.8155 73.4851 37.1845 73.4851 31.2443 67.5448C25.3041 61.6046 25.3041 51.9736 31.2443 46.0334Z" fill="black" style="fill:black;fill-opacity:1;"/>
<path d="M37 35C37 32.2386 39.2386 30 42 30C44.7614 30 47 32.2386 47 35V49C47 51.7614 44.7614 54 42 54C39.2386 54 37 51.7614 37 49V35Z" fill="white" style="fill:white;fill-opacity:1;"/>
</g>
<defs>
<clipPath id="clip0_3025_69">
<rect width="84" height="84" fill="white" style="fill:white;fill-opacity:1;"/>
</clipPath>
</defs>
</svg>
